<?xml version="1.0" standalone="no"?>
<!DOCTYPE svg PUBLIC "-//W3C//DTD SVG 20010904//EN"
 "http://www.w3.org/TR/2001/REC-SVG-20010904/DTD/svg10.dtd">
<svg version="1.0" xmlns="http://www.w3.org/2000/svg"
 width="866.000000pt" height="650.000000pt" viewBox="0 0 866.000000 650.000000"
 preserveAspectRatio="xMidYMid meet">

<g transform="translate(0.000000,650.000000) scale(0.100000,-0.100000)"
fill="#000000" stroke="none">
<path d="M2784 5221 c-2 -2 -4 -278 -4 -613 l0 -608 80 0 80 0 0 -745 0 -745
-80 0 -80 0 0 -610 0 -610 1250 0 1251 0 148 133 c81 72 216 193 299 267 l151
135 1 1428 0 1428 -57 53 c-32 29 -167 150 -300 269 l-242 217 -1246 3 c-686
1 -1249 0 -1251 -2z m2706 -293 c135 -121 260 -233 278 -249 l32 -28 0 -1395
0 -1395 -277 -250 -278 -250 -1192 -1 -1193 0 0 535 0 535 80 0 80 0 0 825 0
825 -80 0 -80 0 0 535 0 535 1193 0 1192 -1 245 -221z"/>
<path d="M3080 4610 l0 -320 75 0 75 0 0 -1035 0 -1035 -75 0 -75 0 0 -320 0
-320 1043 0 1042 0 208 186 207 186 0 1303 0 1303 -207 186 -208 186 -1042 0
-1043 0 0 -320z m1783 -353 l37 -32 0 -970 1 -970 -38 -32 -38 -33 -457 0
-458 0 0 1035 0 1035 458 0 457 0 38 -33z"/>
<path d="M4130 3255 l0 -825 280 0 280 0 0 825 0 825 -280 0 -280 0 0 -825z
m480 0 l0 -745 -205 0 -205 0 0 745 0 745 205 0 205 0 0 -745z"/>
</g>
</svg>
