<?xml version="1.0" standalone="no"?>
<!DOCTYPE svg PUBLIC "-//W3C//DTD SVG 20010904//EN"
 "http://www.w3.org/TR/2001/REC-SVG-20010904/DTD/svg10.dtd">
<svg version="1.0" xmlns="http://www.w3.org/2000/svg"
 width="200.000000pt" height="200.000000pt" viewBox="0 0 200.000000 200.000000"
 preserveAspectRatio="xMidYMid meet">

<g transform="translate(0.000000,200.000000) scale(0.100000,-0.100000)"
fill="#000000" stroke="none">
<path d="M885 1874 c-369 -60 -643 -309 -742 -674 -26 -98 -23 -318 6 -425 87
-323 336 -562 669 -641 89 -22 284 -22 376 0 164 39 302 115 421 231 90 88
127 138 179 241 163 327 104 727 -147 991 -173 182 -369 270 -617 278 -63 2
-128 1 -145 -1z m-195 -684 c25 -25 25 -32 2 -60 -14 -18 -25 -21 -45 -16 -35
8 -46 49 -22 76 23 25 40 25 65 0z m681 10 c39 -21 16 -90 -30 -90 -16 0 -41
30 -41 50 0 20 25 50 41 50 6 0 19 -5 30 -10z m-673 -216 c5 -139 -32 -194
-130 -194 -37 0 -38 1 -38 35 0 31 3 35 27 35 51 0 63 23 63 122 l0 89 38 -3
37 -3 3 -81z m104 -5 c2 -76 6 -93 22 -105 20 -14 52 -11 71 8 6 5 12 48 15
96 l5 87 35 0 35 0 3 -132 3 -133 -41 0 c-31 0 -40 4 -40 17 0 15 -2 15 -17 0
-45 -40 -122 -28 -148 24 -10 19 -15 60 -15 129 l0 100 34 0 34 0 4 -91z m288
76 c0 -19 9 -19 34 0 26 19 86 19 113 0 30 -21 43 -74 43 -172 l0 -83 -40 0
-40 0 0 81 c0 96 -10 119 -50 119 -45 0 -60 -31 -60 -122 l0 -78 -35 0 -35 0
0 135 0 135 35 0 c24 0 35 -5 35 -15z m290 -120 l0 -135 -35 0 -35 0 0 135 0
135 35 0 35 0 0 -135z"/>
</g>
</svg>
